<svg version="1.1" id="Layer_1" xmlns="http://www.w3.org/2000/svg" xmlns:xlink="http://www.w3.org/1999/xlink" x="0px" y="0px"
	 width="100%" viewBox="0 0 247 80" enable-background="new 0 0 247 80" xml:space="preserve">
<path fill="#000100" opacity="1.000000" stroke="none" 
	d="
M55.000000,1.000000 
	C119.289680,1.000000 183.579361,1.000000 247.934525,1.000000 
	C247.934525,27.604788 247.934525,54.209770 247.934525,80.907379 
	C165.784378,80.907379 83.568604,80.907379 1.176420,80.907379 
	C1.176420,54.334198 1.176420,27.667250 1.176420,1.000000 
	C15.749252,1.000000 30.405968,1.000000 45.830574,1.294828 
	C46.156055,2.041533 45.794613,2.659562 45.259155,2.920487 
	C36.519527,7.179233 34.266502,14.165188 37.079155,23.114229 
	C38.227303,26.767294 39.595722,30.351130 40.556965,33.854645 
	C39.468819,34.375130 38.377865,34.849922 37.961933,35.667942 
	C36.442474,38.656269 35.148094,41.759033 33.735008,44.893917 
	C32.962593,44.173664 32.447475,43.693333 31.596348,43.234993 
	C30.342323,44.420162 29.424311,45.583336 28.443026,46.826679 
	C18.987139,32.026138 18.987139,32.026138 8.222613,33.464542 
	C8.222613,44.176792 8.222613,54.903088 8.222613,65.605652 
	C17.001089,66.578323 16.987370,66.578430 16.921131,58.140366 
	C16.887959,53.914261 16.915352,49.687687 16.915352,44.479412 
	C20.290829,49.670326 23.088392,53.972504 26.294590,58.903095 
	C27.093153,56.689281 27.578159,55.344730 28.404531,54.086922 
	C28.802576,55.103889 28.859251,56.034111 28.614540,57.130322 
	C27.532709,59.192753 26.752264,61.089199 25.653667,63.224583 
	C25.927494,66.436424 25.927494,66.436424 33.239491,65.499039 
	C31.268410,58.724041 34.883896,53.439457 38.442688,47.920975 
	C39.821499,46.558681 40.902920,45.319248 41.988670,44.540726 
	C41.996212,51.040352 41.915348,57.081520 42.091553,63.115181 
	C42.118572,64.040489 43.330952,64.931190 44.396317,65.916878 
	C46.103565,65.938362 47.409607,65.880859 49.098930,65.806488 
	C49.098930,58.742073 49.098930,51.883427 49.406235,45.014740 
	C50.443581,45.305607 51.173622,45.606514 52.275639,46.209503 
	C52.167446,47.906452 51.583290,49.275166 51.224747,50.700630 
	C49.480534,57.635094 52.929115,63.878788 59.682972,66.124237 
	C65.842865,68.172211 71.494667,65.499451 74.116661,58.575039 
	C71.051788,59.150978 68.230797,59.199718 65.837753,60.236351 
	C61.561451,62.088772 59.576923,60.139027 57.406170,56.083443 
	C63.632854,56.083443 69.184555,56.083443 74.555420,56.083443 
	C76.571312,49.786808 72.312973,44.435009 68.506142,42.291416 
	C64.577026,40.078964 57.754002,40.703747 54.434925,44.919102 
	C53.951176,45.533485 52.763256,45.593410 51.913742,45.548306 
	C55.744102,38.836590 59.716305,32.573174 63.342670,26.115545 
	C68.490036,16.949415 65.929520,5.477075 55.444954,2.822407 
	C55.161030,2.750517 55.142365,1.630990 55.000000,1.000000 
M110.972198,45.104362 
	C111.338242,39.660454 107.462830,42.821659 105.363762,41.925674 
	C105.191605,42.795036 105.017029,43.261421 105.019394,43.726913 
	C105.055321,50.805817 105.114403,57.884609 105.375374,65.777802 
	C107.132942,65.777802 108.890511,65.777802 110.838379,65.777802 
	C110.838379,59.082645 110.838379,52.523968 110.972198,45.104362 
M126.183281,41.075058 
	C124.797874,41.380104 123.412468,41.685150 121.295105,42.004944 
	C113.117340,46.013035 111.356056,51.661396 114.605629,60.188141 
	C116.894661,66.194466 124.486557,67.514954 131.655640,65.033295 
	C132.868469,64.613464 134.407196,63.765121 135.354874,64.163246 
	C143.925705,67.763885 142.659134,66.002258 145.770844,60.488586 
	C148.983185,60.488586 152.268326,60.405788 155.543823,60.547058 
	C156.358353,60.582188 157.761826,61.247013 157.843643,61.782875 
	C158.689896,67.324860 162.542450,66.062744 166.611313,65.769371 
	C164.730728,60.763737 162.967438,56.070328 161.183441,51.321800 
	C162.434113,50.800358 163.400131,50.397598 164.468811,49.952034 
	C165.870209,62.512882 173.804871,68.333237 188.561890,65.185432 
	C189.212769,66.416405 189.878891,67.676224 190.637619,69.111168 
	C192.453064,68.026482 194.180771,66.994209 196.580917,65.560181 
	C191.000214,63.520546 193.865356,60.814884 194.839478,57.824360 
	C196.036606,54.149162 197.125092,50.107010 196.825211,46.337662 
	C195.910843,34.844101 181.925858,28.433044 172.472763,34.953533 
	C167.877045,38.123535 163.530457,41.654724 158.822052,45.210476 
	C157.460068,41.910915 156.860977,39.396362 155.473633,37.441116 
	C154.399582,35.927383 152.376953,34.328560 150.704880,34.248253 
	C149.469803,34.188931 147.583023,36.281231 146.915054,37.818375 
	C144.102875,44.289974 141.664764,50.923290 139.031036,57.473820 
	C138.337692,59.198315 137.433929,60.838211 136.626785,62.516953 
	C136.276810,62.349079 135.926834,62.181202 135.576859,62.013325 
	C136.023270,60.429882 136.469681,58.846439 136.916077,57.262997 
	C136.592056,56.806950 136.268036,56.350899 135.944016,55.894848 
	C133.284225,57.252987 130.624435,58.611126 127.296463,60.008949 
	C126.729630,60.270214 126.162796,60.531479 124.885490,60.331348 
	C123.158218,58.855911 121.430954,57.380470 119.772522,55.263840 
	C119.673882,54.640667 119.575249,54.017498 119.817116,52.668465 
	C121.246613,51.006470 122.676102,49.344479 124.875160,47.743217 
	C125.905685,47.770092 126.936218,47.796963 128.652222,48.165462 
	C130.274017,49.110622 131.821701,50.270359 133.562332,50.871407 
	C134.090958,51.053944 135.952789,49.390308 135.838867,49.089859 
	C135.132004,47.225597 134.411407,45.055378 132.970276,43.863316 
	C131.346649,42.520317 128.957779,42.102501 126.183281,41.075058 
M99.532646,66.021133 
	C100.304184,65.211609 101.734512,64.412148 101.747063,63.591034 
	C101.900955,53.517715 101.847260,43.441223 101.847260,33.491158 
	C99.325546,33.661121 97.209869,33.803715 95.005157,33.952312 
	C95.005157,35.613487 95.005157,37.271217 95.005157,38.928944 
	C95.005157,40.466183 95.005157,42.003422 95.005157,43.823872 
	C88.729561,40.194462 84.727806,40.246548 80.834030,43.654366 
	C76.660316,47.307182 75.255478,53.383835 76.904457,58.518787 
	C78.900627,64.734901 82.897217,66.276611 88.329475,66.070145 
	C91.766525,65.939514 95.228889,63.799118 99.532646,66.021133 
M221.006897,49.591080 
	C221.006897,47.478127 221.006897,45.365170 221.006897,42.914196 
	C219.281631,43.113461 218.092728,43.250778 217.175247,43.356747 
	C216.867981,48.081364 216.493896,52.349625 216.338959,56.625824 
	C216.178284,61.060406 213.508591,62.128876 209.701813,62.096378 
	C205.286987,62.058689 204.733322,58.859821 204.555222,55.672272 
	C204.326141,51.572414 204.499496,47.450077 204.499496,43.330479 
	C202.794495,43.014133 201.464371,42.767345 200.011978,42.497868 
	C200.011978,47.591400 199.850021,52.411964 200.061920,57.216030 
	C200.239532,61.242790 201.377884,65.338387 206.092758,65.776932 
	C210.930237,66.226883 215.868286,65.595421 221.007034,65.429344 
	C221.007034,60.513058 221.007034,55.542629 221.006897,49.591080 
M229.997360,44.790020 
	C230.145996,40.612595 227.573563,42.111946 225.278259,42.259422 
	C225.278259,50.184006 225.278259,57.745674 225.278259,65.673767 
	C226.813858,65.751587 228.175079,65.820564 229.997116,65.912895 
	C229.997116,58.927204 229.997116,52.331909 229.997360,44.790020 
M105.105156,33.538445 
	C105.572227,35.513878 105.849197,37.576321 106.677666,39.386333 
	C106.830856,39.721024 109.927910,39.483337 110.403374,38.721588 
	C111.202515,37.441277 111.672836,34.492100 111.063446,34.089737 
	C109.632805,33.145115 107.481934,33.291302 105.105156,33.538445 
z"/>
<path fill="#F8FFFB" opacity="1.000000" stroke="none" 
	d="
M40.863926,33.966461 
	C39.595722,30.351130 38.227303,26.767294 37.079155,23.114229 
	C34.266502,14.165188 36.519527,7.179233 45.259155,2.920487 
	C45.794613,2.659562 46.156055,2.041533 46.299232,1.294828 
	C48.700012,1.000000 51.400028,1.000000 54.550018,1.000000 
	C55.142365,1.630990 55.161030,2.750517 55.444954,2.822407 
	C65.929520,5.477075 68.490036,16.949415 63.342670,26.115545 
	C59.716305,32.573174 55.744102,38.836590 51.951111,45.584877 
	C51.975910,45.983036 51.903664,45.907421 51.903664,45.907421 
	C51.173622,45.606514 50.443581,45.305607 49.278625,44.691132 
	C46.183781,40.907196 43.523853,37.436829 40.863926,33.966461 
M59.957474,22.332260 
	C60.321693,20.940376 60.675861,19.545769 61.051937,18.157097 
	C62.379189,13.256249 60.336403,9.139739 56.270954,7.381054 
	C53.242653,6.071033 48.135193,5.753104 45.834129,7.487761 
	C42.545166,9.967145 38.249340,13.257531 40.685570,19.396803 
	C44.022495,27.805830 51.801979,29.527073 59.957474,22.332260 
z"/>
<path fill="#82E7E0" opacity="1.000000" stroke="none" 
	d="
M127.964653,59.969261 
	C130.624435,58.611126 133.284225,57.252987 135.944016,55.894848 
	C136.268036,56.350899 136.592056,56.806950 136.916077,57.262997 
	C136.469681,58.846439 136.023270,60.429882 135.576859,62.013325 
	C135.926834,62.181202 136.276810,62.349079 136.626785,62.516953 
	C137.433929,60.838211 138.337692,59.198315 139.031036,57.473820 
	C141.664764,50.923290 144.102875,44.289974 146.915054,37.818375 
	C147.583023,36.281231 149.469803,34.188931 150.704880,34.248253 
	C152.376953,34.328560 154.399582,35.927383 155.473633,37.441116 
	C156.860977,39.396362 157.460068,41.910915 158.822052,45.210476 
	C163.530457,41.654724 167.877045,38.123535 172.472763,34.953533 
	C181.925858,28.433044 195.910843,34.844101 196.825211,46.337662 
	C197.125092,50.107010 196.036606,54.149162 194.839478,57.824360 
	C193.865356,60.814884 191.000214,63.520546 196.580917,65.560181 
	C194.180771,66.994209 192.453064,68.026482 190.637619,69.111168 
	C189.878891,67.676224 189.212769,66.416405 188.561890,65.185432 
	C173.804871,68.333237 165.870209,62.512882 164.468811,49.952034 
	C163.400131,50.397598 162.434113,50.800358 161.183441,51.321800 
	C162.967438,56.070328 164.730728,60.763737 166.611313,65.769371 
	C162.542450,66.062744 158.689896,67.324860 157.843643,61.782875 
	C157.761826,61.247013 156.358353,60.582188 155.543823,60.547058 
	C152.268326,60.405788 148.983185,60.488586 145.770844,60.488586 
	C142.659134,66.002258 143.925705,67.763885 135.354874,64.163246 
	C134.407196,63.765121 132.868469,64.613464 131.655640,65.033295 
	C124.486557,67.514954 116.894661,66.194466 114.605629,60.188141 
	C111.356056,51.661396 113.117340,46.013035 122.028625,42.002151 
	C124.142006,41.760334 125.521881,41.521301 126.901749,41.282272 
	C128.957779,42.102501 131.346649,42.520317 132.970276,43.863316 
	C134.411407,45.055378 135.132004,47.225597 135.838867,49.089859 
	C135.952789,49.390308 134.090958,51.053944 133.562332,50.871407 
	C131.821701,50.270359 130.274017,49.110622 128.093353,47.773323 
	C126.391518,47.481617 125.248558,47.582054 124.105598,47.682487 
	C122.676102,49.344479 121.246613,51.006470 119.485565,53.191811 
	C119.337242,54.445114 119.520462,55.175072 119.703682,55.905033 
	C121.430954,57.380470 123.158218,58.855911 125.451286,60.652641 
	C126.666275,60.639038 127.315460,60.304150 127.964653,59.969261 
M183.631546,57.083038 
	C184.394897,55.941193 185.158234,54.799343 186.010574,53.524384 
	C187.543625,54.985924 188.598053,55.991158 189.672333,57.015324 
	C193.502640,51.597164 193.246185,44.618023 189.185699,40.605591 
	C185.106064,36.574230 178.996231,35.776573 174.768387,38.723354 
	C169.005524,42.740036 167.444000,48.859669 170.569351,55.179420 
	C173.469727,61.044243 178.117538,62.586586 185.612411,60.173195 
	C185.091965,59.334454 184.571503,58.495708 183.631546,57.083038 
z"/>
<path fill="#7EE7DD" opacity="1.000000" stroke="none" 
	d="
M99.102814,66.028458 
	C95.228889,63.799118 91.766525,65.939514 88.329475,66.070145 
	C82.897217,66.276611 78.900627,64.734901 76.904457,58.518787 
	C75.255478,53.383835 76.660316,47.307182 80.834030,43.654366 
	C84.727806,40.246548 88.729561,40.194462 95.005157,43.823872 
	C95.005157,42.003422 95.005157,40.466183 95.005157,38.928944 
	C95.005157,37.271217 95.005157,35.613487 95.005157,33.952312 
	C97.209869,33.803715 99.325546,33.661121 101.847260,33.491158 
	C101.847260,43.441223 101.900955,53.517715 101.747063,63.591034 
	C101.734512,64.412148 100.304184,65.211609 99.102814,66.028458 
M83.322823,56.817352 
	C83.774200,57.293854 84.197708,57.800922 84.681473,58.241898 
	C87.848007,61.128338 91.526299,61.008450 93.961113,57.955711 
	C95.996803,55.403385 95.497864,50.563046 92.992523,48.558983 
	C90.247429,46.363140 86.391876,47.019543 84.154961,50.553314 
	C83.221840,52.027416 83.386559,54.196453 83.322823,56.817352 
z"/>
<path fill="#F5FEF8" opacity="1.000000" stroke="none" 
	d="
M28.063162,54.000175 
	C27.578159,55.344730 27.093153,56.689281 26.294590,58.903095 
	C23.088392,53.972504 20.290829,49.670326 16.915352,44.479412 
	C16.915352,49.687687 16.887959,53.914261 16.921131,58.140366 
	C16.987370,66.578430 17.001089,66.578323 8.222613,65.605652 
	C8.222613,54.903088 8.222613,44.176792 8.222613,33.464542 
	C18.987139,32.026138 18.987139,32.026138 28.443026,46.826679 
	C29.424311,45.583336 30.342323,44.420162 31.581005,43.589775 
	C32.228321,45.265171 32.554966,46.607784 32.597862,48.121002 
	C30.897129,50.194466 29.480145,52.097321 28.063162,54.000175 
z"/>
<path fill="#80E7DE" opacity="1.000000" stroke="none" 
	d="
M51.938541,45.946465 
	C52.763256,45.593410 53.951176,45.533485 54.434925,44.919102 
	C57.754002,40.703747 64.577026,40.078964 68.506142,42.291416 
	C72.312973,44.435009 76.571312,49.786808 74.555420,56.083443 
	C69.184555,56.083443 63.632854,56.083443 57.406170,56.083443 
	C59.576923,60.139027 61.561451,62.088772 65.837753,60.236351 
	C68.230797,59.199718 71.051788,59.150978 74.116661,58.575039 
	C71.494667,65.499451 65.842865,68.172211 59.682972,66.124237 
	C52.929115,63.878788 49.480534,57.635094 51.224747,50.700630 
	C51.583290,49.275166 52.167446,47.906452 52.275639,46.209503 
	C51.903664,45.907421 51.975910,45.983036 51.938541,45.946465 
M62.648079,46.945957 
	C60.978775,47.855396 59.309471,48.764839 57.640163,49.674278 
	C57.816582,50.079311 57.993000,50.484341 58.169415,50.889374 
	C61.302269,50.889374 64.435127,50.889374 67.567978,50.889374 
	C67.758163,50.552467 67.948349,50.215557 68.138527,49.878651 
	C66.584763,48.904518 65.030998,47.930389 62.648079,46.945957 
z"/>
<path fill="#8AE9E4" opacity="1.000000" stroke="none" 
	d="
M221.006958,50.081638 
	C221.007034,55.542629 221.007034,60.513058 221.007034,65.429344 
	C215.868286,65.595421 210.930237,66.226883 206.092758,65.776932 
	C201.377884,65.338387 200.239532,61.242790 200.061920,57.216030 
	C199.850021,52.411964 200.011978,47.591400 200.011978,42.497868 
	C201.464371,42.767345 202.794495,43.014133 204.499496,43.330479 
	C204.499496,47.450077 204.326141,51.572414 204.555222,55.672272 
	C204.733322,58.859821 205.286987,62.058689 209.701813,62.096378 
	C213.508591,62.128876 216.178284,61.060406 216.338959,56.625824 
	C216.493896,52.349625 216.867981,48.081364 217.175247,43.356747 
	C218.092728,43.250778 219.281631,43.113461 221.006897,42.914196 
	C221.006897,45.365170 221.006897,47.478127 221.006958,50.081638 
z"/>
<path fill="#8CEAE2" opacity="1.000000" stroke="none" 
	d="
M32.881615,47.950394 
	C32.554966,46.607784 32.228321,45.265171 31.917017,43.567780 
	C32.447475,43.693333 32.962593,44.173664 33.735008,44.893917 
	C35.148094,41.759033 36.442474,38.656269 37.961933,35.667942 
	C38.377865,34.849922 39.468819,34.375130 40.556965,33.854645 
	C43.523853,37.436829 46.183781,40.907196 48.971321,44.701172 
	C49.098930,51.883427 49.098930,58.742073 49.098930,65.806488 
	C47.409607,65.880859 46.103565,65.938362 44.335773,65.512878 
	C43.583366,61.254238 43.328087,57.475414 42.991253,53.703869 
	C42.704353,50.491501 42.323582,47.287510 41.984344,44.079815 
	C40.902920,45.319248 39.821499,46.558681 38.110794,48.029785 
	C35.948208,48.157768 34.414913,48.054081 32.881615,47.950394 
z"/>
<path fill="#73E3D7" opacity="1.000000" stroke="none" 
	d="
M229.997238,45.263313 
	C229.997116,52.331909 229.997116,58.927204 229.997116,65.912895 
	C228.175079,65.820564 226.813858,65.751587 225.278259,65.673767 
	C225.278259,57.745674 225.278259,50.184006 225.278259,42.259422 
	C227.573563,42.111946 230.145996,40.612595 229.997238,45.263313 
z"/>
<path fill="#8CEBE6" opacity="1.000000" stroke="none" 
	d="
M110.838379,45.965290 
	C110.838379,52.523968 110.838379,59.082645 110.838379,65.777802 
	C108.890511,65.777802 107.132942,65.777802 105.540237,65.057922 
	C105.802917,58.551525 105.820152,52.761639 106.060944,46.981068 
	C106.114418,45.697445 106.956161,44.446655 107.434959,43.180752 
	C108.569435,44.108929 109.703911,45.037109 110.838379,45.965290 
z"/>
<path fill="#92EBE2" opacity="1.000000" stroke="none" 
	d="
M32.597862,48.121002 
	C34.414913,48.054081 35.948208,48.157768 37.813404,48.152641 
	C34.883896,53.439457 31.268410,58.724041 33.239491,65.499039 
	C25.927494,66.436424 25.927494,66.436424 25.999561,63.372555 
	C28.351997,62.937416 30.944279,63.139828 31.548750,62.140205 
	C33.000477,59.739475 31.483007,57.858616 28.915926,56.964333 
	C28.859251,56.034111 28.802576,55.103889 28.404530,54.086922 
	C29.480145,52.097321 30.897129,50.194466 32.597862,48.121002 
z"/>
<path fill="#77E3D6" opacity="1.000000" stroke="none" 
	d="
M105.363861,33.267223 
	C107.481934,33.291302 109.632805,33.145115 111.063446,34.089737 
	C111.672836,34.492100 111.202515,37.441277 110.403374,38.721588 
	C109.927910,39.483337 106.830856,39.721024 106.677666,39.386333 
	C105.849197,37.576321 105.572227,35.513878 105.363861,33.267223 
z"/>
<path fill="#85E9E1" opacity="1.000000" stroke="none" 
	d="
M28.614540,57.130322 
	C31.483007,57.858616 33.000477,59.739475 31.548750,62.140205 
	C30.944279,63.139828 28.351997,62.937416 26.317711,63.133614 
	C26.752264,61.089199 27.532709,59.192753 28.614540,57.130322 
z"/>
<path fill="#B4F1EE" opacity="1.000000" stroke="none" 
	d="
M110.905289,45.534828 
	C109.703911,45.037109 108.569435,44.108929 107.434959,43.180752 
	C106.956161,44.446655 106.114418,45.697445 106.060944,46.981068 
	C105.820152,52.761639 105.802917,58.551525 105.436584,64.650742 
	C105.114403,57.884609 105.055321,50.805817 105.019394,43.726913 
	C105.017029,43.261421 105.191605,42.795036 105.363762,41.925674 
	C107.462830,42.821659 111.338242,39.660454 110.905289,45.534828 
z"/>
<path fill="#A3EEEB" opacity="1.000000" stroke="none" 
	d="
M41.988670,44.540726 
	C42.323582,47.287510 42.704353,50.491501 42.991253,53.703869 
	C43.328087,57.475414 43.583366,61.254238 43.934570,65.433899 
	C43.330952,64.931190 42.118572,64.040489 42.091553,63.115181 
	C41.915348,57.081520 41.996212,51.040352 41.988670,44.540726 
z"/>
<path fill="#82E7DF" opacity="1.000000" stroke="none" 
	d="
M126.542511,41.178665 
	C125.521881,41.521301 124.142006,41.760334 122.394600,41.994781 
	C123.412468,41.685150 124.797874,41.380104 126.542511,41.178665 
z"/>
<path fill="#82E7DF" opacity="1.000000" stroke="none" 
	d="
M124.490379,47.712852 
	C125.248558,47.582054 126.391518,47.481617 127.750610,47.602509 
	C126.936218,47.796963 125.905685,47.770092 124.490379,47.712852 
z"/>
<path fill="#82E7DF" opacity="1.000000" stroke="none" 
	d="
M119.738098,55.584435 
	C119.520462,55.175072 119.337242,54.445114 119.315315,53.554741 
	C119.575249,54.017498 119.673882,54.640667 119.738098,55.584435 
z"/>
<path fill="#82E7DF" opacity="1.000000" stroke="none" 
	d="
M127.630554,59.989105 
	C127.315460,60.304150 126.666275,60.639038 125.806519,60.883339 
	C126.162796,60.531479 126.729630,60.270214 127.630554,59.989105 
z"/>
<path fill="#000000" opacity="1.000000" stroke="none" 
	d="
M59.698090,22.638962 
	C51.801979,29.527073 44.022495,27.805830 40.685570,19.396803 
	C38.249340,13.257531 42.545166,9.967145 45.834129,7.487761 
	C48.135193,5.753104 53.242653,6.071033 56.270954,7.381054 
	C60.336403,9.139739 62.379189,13.256249 61.051937,18.157097 
	C60.675861,19.545769 60.321693,20.940376 59.698090,22.638962 
M44.592121,14.055429 
	C44.364067,15.578085 44.136009,17.100740 43.907951,18.623398 
	C44.315971,18.445215 44.723991,18.267033 45.132011,18.088852 
	C46.480099,19.577276 47.828190,21.065699 49.438393,22.843521 
	C50.351986,22.843521 51.973267,22.843521 52.165791,22.843521 
	C54.415955,20.636442 55.847553,19.232250 57.852703,17.265491 
	C57.852703,17.091000 57.852703,15.804040 57.852703,14.517080 
	C57.475388,14.684238 57.098072,14.851397 56.720757,15.018554 
	C55.804405,13.690248 55.013329,12.246169 53.929142,11.072960 
	C53.163162,10.244080 51.894669,9.164560 51.040314,9.310215 
	C49.929008,9.499672 48.984634,10.768182 48.007969,11.617760 
	C47.132687,12.379145 46.310982,13.202121 44.592121,14.055429 
z"/>
<path fill="#000200" opacity="1.000000" stroke="none" 
	d="
M183.841309,57.370003 
	C184.571503,58.495708 185.091965,59.334454 185.613373,60.172592 
	C178.117538,62.586586 173.469727,61.044243 170.569351,55.179420 
	C167.444000,48.859669 169.005524,42.740036 174.768387,38.723354 
	C178.996231,35.776573 185.106064,36.574230 189.185699,40.605591 
	C193.246185,44.618023 193.502640,51.597164 189.672333,57.015324 
	C188.598053,55.991158 187.543625,54.985924 186.010574,53.524384 
	C185.158234,54.799343 184.394897,55.941193 183.841309,57.370003 
z"/>
<path fill="#010602" opacity="1.000000" stroke="none" 
	d="
M83.187454,56.433430 
	C83.386559,54.196453 83.221840,52.027416 84.154961,50.553314 
	C86.391876,47.019543 90.247429,46.363140 92.992523,48.558983 
	C95.497864,50.563046 95.996803,55.403385 93.961113,57.955711 
	C91.526299,61.008450 87.848007,61.128338 84.681473,58.241898 
	C84.197708,57.800922 83.774200,57.293854 83.187454,56.433430 
z"/>
<path fill="#000000" opacity="1.000000" stroke="none" 
	d="
M63.062660,46.951111 
	C65.030998,47.930389 66.584763,48.904518 68.138527,49.878651 
	C67.948349,50.215557 67.758163,50.552467 67.567978,50.889374 
	C64.435127,50.889374 61.302269,50.889374 58.169415,50.889374 
	C57.993000,50.484341 57.816582,50.079311 57.640163,49.674278 
	C59.309471,48.764839 60.978775,47.855396 63.062660,46.951111 
z"/>
<path fill="#F5FEFB" opacity="1.000000" stroke="none" 
	d="
M45.028881,14.026676 
	C46.310982,13.202121 47.132687,12.379145 48.007969,11.617760 
	C48.984634,10.768182 49.929008,9.499672 51.040314,9.310215 
	C51.894669,9.164560 53.163162,10.244080 53.929142,11.072960 
	C55.013329,12.246169 55.804405,13.690248 56.720757,15.018554 
	C57.098072,14.851397 57.475388,14.684238 57.852703,14.517080 
	C57.852703,15.804040 57.852703,17.091000 57.852703,17.265491 
	C55.847553,19.232250 54.415955,20.636442 52.165791,22.843521 
	C51.973267,22.843521 50.351986,22.843521 49.438393,22.843521 
	C47.828190,21.065699 46.480099,19.577276 45.132011,18.088852 
	C44.723991,18.267033 44.315971,18.445215 43.907951,18.623398 
	C44.136009,17.100740 44.364067,15.578085 45.028881,14.026676 
z"/>
</svg>